<svg width="629" height="699" viewBox="0 0 629 699" fill="none" xmlns="http://www.w3.org/2000/svg">
<path d="M391.764 128.788L242.47 41.5669" stroke="#1A2A43" stroke-width="10" stroke-linecap="round" stroke-linejoin="round"/>
<path d="M463.834 242.994L464.938 107.77C464.981 101.842 463.451 96.0065 460.51 90.85C457.57 85.693 453.316 81.3958 448.177 78.3895L329.732 9.80705C324.589 6.79782 318.74 5.18795 312.77 5.13924C306.8 5.09053 300.925 6.60476 295.733 9.52967L176.186 76.1704C170.998 79.0924 166.675 83.3197 163.65 88.4279C160.626 93.5358 159.001 99.3456 158.948 105.274L157.844 240.497C157.801 246.425 159.331 252.261 162.272 257.417C165.213 262.574 169.466 266.872 174.605 269.878L293.05 338.46C298.193 341.47 304.042 343.079 310.012 343.128C315.982 343.177 321.857 341.663 327.049 338.738L446.596 272.097C451.784 269.175 456.107 264.948 459.132 259.839C462.156 254.732 463.781 248.922 463.834 242.994Z" stroke="#1A2A43" stroke-width="10" stroke-linecap="round" stroke-linejoin="round"/>
<path d="M167.589 87.9576L314.893 174.162L457.584 89.8235" stroke="#1A2A43" stroke-width="10" stroke-linecap="round" stroke-linejoin="round"/>
<path d="M314.981 341.124L317.391 173.183" stroke="#1A2A43" stroke-width="10" stroke-linecap="round" stroke-linejoin="round"/>
<path d="M239.721 391.021L90.4272 303.8" stroke="#1A2A43" stroke-width="10" stroke-linecap="round" stroke-linejoin="round"/>
<path d="M308.467 353.083C305.527 347.926 301.273 343.628 296.134 340.622L177.689 272.04C172.546 269.031 166.697 267.421 160.727 267.372C154.757 267.323 148.882 268.837 143.69 271.762L24.1428 338.403C18.9553 341.325 14.6321 345.552 11.6074 350.661C8.58268 355.769 6.95768 361.578 6.90478 367.506L5.80152 502.73C5.75769 508.658 7.28768 514.494 10.2286 519.65C13.1696 524.807 17.4233 529.104 22.5624 532.11L141.007 600.693C146.15 603.702 151.999 605.312 157.969 605.361C163.939 605.409 160.808 605.425 166 602.5" stroke="#1A2A43" stroke-width="10" stroke-linecap="round" stroke-linejoin="round"/>
<path d="M15.5462 350.19L162.85 436.395L305.541 352.056" stroke="#1A2A43" stroke-width="10" stroke-linecap="round" stroke-linejoin="round"/>
<path d="M163.966 604.124L165.348 436.415" stroke="#1A2A43" stroke-width="10" stroke-linecap="round" stroke-linejoin="round"/>
<path d="M550.721 392.021L401.427 304.8" stroke="#1A2A43" stroke-width="10" stroke-linecap="round" stroke-linejoin="round"/>
<path d="M322.607 351.661C325.632 346.552 329.955 342.325 335.143 339.403L454.691 272.762C459.883 269.837 465.757 268.323 471.727 268.372C477.697 268.421 483.546 270.031 488.689 273.04L607.134 341.622C612.273 344.628 616.527 348.926 619.468 354.083C622.409 359.239 623.939 365.075 623.895 371.003L622.791 506.226C622.739 512.154 621.114 517.964 618.089 523.072C615.064 528.18 610.741 532.408 605.553 535.33L486.006 601.97C480.814 604.895 480.94 603.409 474.969 603.361" stroke="#1A2A43" stroke-width="10" stroke-linecap="round" stroke-linejoin="round"/>
<path d="M326.546 351.19L473.85 437.395L616.541 353.056" stroke="#1A2A43" stroke-width="10" stroke-linecap="round" stroke-linejoin="round"/>
<path d="M474.966 603.124L476.348 438.415" stroke="#1A2A43" stroke-width="10" stroke-linecap="round" stroke-linejoin="round"/>
<path d="M391.713 479.021L242.419 391.8" stroke="#1A2A43" stroke-width="10" stroke-linecap="round" stroke-linejoin="round"/>
<path d="M470.784 593.226L471.887 458.003C471.931 452.075 470.401 446.239 467.46 441.083C464.519 435.926 460.265 431.628 455.126 428.622L336.682 360.04C331.538 357.031 325.689 355.421 319.719 355.372C313.749 355.323 307.875 356.837 302.683 359.762L183.135 426.403C177.947 429.325 173.624 433.552 170.6 438.661C167.575 443.769 165.95 449.578 165.897 455.506L164.794 590.73C164.75 596.658 166.28 602.494 169.221 607.65C172.162 612.807 176.415 617.104 181.555 620.11L299.999 688.693C305.143 691.702 310.991 693.312 316.961 693.361C322.932 693.409 328.806 691.895 333.998 688.97L453.546 622.33C458.733 619.408 463.056 615.18 466.081 610.072C469.106 604.964 470.731 599.154 470.784 593.226Z" stroke="#1A2A43" stroke-width="10" stroke-linecap="round" stroke-linejoin="round"/>
<path d="M167.538 438.19L314.842 524.395L457.533 440.056" stroke="#1A2A43" stroke-width="10" stroke-linecap="round" stroke-linejoin="round"/>
<path d="M317.649 690.124L317.649 524.415" stroke="#1A2A43" stroke-width="10" stroke-linecap="round" stroke-linejoin="round"/>
</svg>
