<svg width="712" height="88" viewBox="0 0 712 88" fill="none" xmlns="http://www.w3.org/2000/svg">
<path d="M0 87.23V0H93.208V15.86H19.52V40.016H83.692V55.876H19.52V87.23H0ZM102.975 87.23C96.387 87.23 91.344 85.5627 87.847 82.228C84.35 78.8933 82.601 74.1353 82.601 67.954C82.601 61.854 84.35 57.1367 87.847 53.802C91.344 50.4673 96.387 48.8 102.975 48.8H149.823V45.872C149.823 40.9107 147.383 38.43 142.503 38.43H90.775V24.4H147.139C154.54 24.4 159.786 26.108 162.877 29.524C165.968 32.8587 167.513 37.576 167.513 43.676V87.23H102.975ZM106.147 73.2H149.823V62.83H106.147C104.602 62.83 103.382 63.318 102.487 64.294C101.674 65.1887 101.267 66.4087 101.267 67.954C101.267 69.4993 101.674 70.76 102.487 71.736C103.382 72.712 104.602 73.2 106.147 73.2ZM167.513 87.23V73.81H230.144C233.56 73.81 235.268 71.8987 235.268 68.076C235.268 64.3347 233.56 62.464 230.144 62.464H191.47C184.231 62.464 178.741 60.8373 175 57.584C171.258 54.2493 169.388 49.4913 169.388 43.31C169.388 37.0473 171.258 32.2487 175 28.914C178.822 25.498 184.302 24.23 191.46 24.23H247.46V38.23H192.46C188.962 38.23 187.078 39.528 187.078 42.944C187.078 44.652 187.566 45.994 188.542 46.97C189.518 47.946 190.778 48.434 192.324 48.434H233.316C239.66 48.434 244.499 50.1013 247.834 53.436C251.25 56.6893 252.958 61.4473 252.958 67.71C252.958 74.054 251.25 79.0153 247.834 82.594C244.418 86.0913 239.722 86.84 233.46 86.84L167.513 87.23ZM287.498 87.23C280.422 87.23 275.217 85.4813 271.882 81.984C268.547 78.4053 266.88 73.7287 266.88 67.954V38.43L247.46 38.23V24.23L266.88 24.4V5.124H284.57V24.4H310.678V38.43H284.57V65.758C284.57 70.7193 287.01 73.2 291.89 73.2H314.094V87.23H287.498ZM400.9 87.23V24.4H448.968C456.044 24.4 461.249 26.1893 464.584 29.768C467.918 33.2653 469.586 37.9013 469.586 43.676V56.73H451.652V45.872C451.652 40.992 449.212 38.552 444.332 38.552H418.834V87.23H400.9ZM550.485 87.23H532.795V0H550.485V87.23ZM547.435 87.23H505.345C494.446 87.23 485.947 84.546 479.847 79.178C473.747 73.81 470.697 66.0427 470.697 55.876C470.697 45.628 473.747 37.82 479.847 32.452C485.947 27.084 494.446 24.4 505.345 24.4H546.215V38.43H505.345C500.058 38.43 495.992 39.894 493.145 42.822C490.38 45.6687 488.997 50.02 488.997 55.876C488.997 61.6507 490.38 66.002 493.145 68.93C495.992 71.7767 500.058 73.2 505.345 73.2H547.435V87.23ZM587.59 86.84C576.691 86.84 568.192 85.156 562.092 79.788C555.992 74.3387 552.942 66.368 552.942 55.876C552.942 45.3027 555.992 37.332 562.092 31.964C568.192 26.5147 576.691 23.79 587.59 23.79H618.09C625.247 23.79 630.697 25.498 634.438 28.914C638.261 32.2487 640.172 37.0473 640.172 43.31C640.172 56.0793 632.811 62.464 618.09 62.464H571.974C573.682 70.028 578.887 73.81 587.59 73.81H642.631V86.84H587.59ZM587.59 37.82C579.213 37.82 574.048 41.358 572.096 48.434H617.236C618.863 48.434 620.123 47.946 621.018 46.97C621.994 45.994 622.482 44.652 622.482 42.944C622.482 39.528 620.733 37.82 617.236 37.82H587.59ZM642.631 86.84V24.4H690.699C697.775 24.4 702.981 26.1893 706.315 29.768C709.65 33.2653 711.317 37.9013 711.317 43.676V56.73H693.383V45.872C693.383 40.992 690.943 38.552 686.063 38.552H660.565V86.84H642.631Z" fill="#1A2A43"/>
<path d="M372.875 35.25L339.125 15.7875" stroke="#1A2A43" stroke-width="10" stroke-linecap="round" stroke-linejoin="round"/>
<path d="M389.75 60V30C389.749 28.6848 389.401 27.393 388.743 26.2544C388.085 25.1157 387.139 24.1701 386 23.5125L359.75 8.5125C358.61 7.85424 357.317 7.50769 356 7.50769C354.683 7.50769 353.39 7.85424 352.25 8.5125L326 23.5125C324.861 24.1701 323.915 25.1157 323.257 26.2544C322.599 27.393 322.251 28.6848 322.25 30V60C322.251 61.3152 322.599 62.607 323.257 63.7456C323.915 64.8843 324.861 65.8299 326 66.4875L352.25 81.4875C353.39 82.1458 354.683 82.4923 356 82.4923C357.317 82.4923 358.61 82.1458 359.75 81.4875L386 66.4875C387.139 65.8299 388.085 64.8843 388.743 63.7456C389.401 62.607 389.749 61.3152 389.75 60Z" stroke="#1A2A43" stroke-width="10" stroke-linecap="round" stroke-linejoin="round"/>
<path d="M323.262 26.1L356 45.0375L388.737 26.1" stroke="#1A2A43" stroke-width="10" stroke-linecap="round" stroke-linejoin="round"/>
<path d="M356 82.8V45" stroke="#1A2A43" stroke-width="10" stroke-linecap="round" stroke-linejoin="round"/>
</svg>
